Coordinates
version=1
nRows=5
nColumns=46
inDegrees=yes

Units are S.I. units (second, meters, Newtons, ...)
Angles are in degrees.

endheader
time	pelvis_tilt	pelvis_list	pelvis_rotation	pelvis_tx	pelvis_ty	pelvis_tz	bb_angle	bb_tx	bb_ty	bb_tz	hip_flexion_r	hip_adduction_r	hip_rotation_r	knee_angle_r	knee_angle_r_beta	ankle_angle_r	subtalar_angle_r	mtp_angle_r	crank_angle_r	hip_flexion_l	hip_adduction_l	hip_rotation_l	knee_angle_l	knee_angle_l_beta	ankle_angle_l	subtalar_angle_l	mtp_angle_l	crank_angle_l	lumbar_extension	lumbar_bending	lumbar_rotation	arm_flex_r	arm_add_r	arm_rot_r	elbow_flex_r	pro_sup_r	wrist_flex_r	wrist_dev_r	arm_flex_l	arm_add_l	arm_rot_l	elbow_flex_l	pro_sup_l	wrist_flex_l	wrist_dev_l
      2.50000000	     27.31596404	     21.91190169	     24.26687073	      0.06703587	      1.05013356	     -0.26127787	      0.00000000	      0.50000000	      0.00000000	      0.25000000	     -1.78061930	    -41.66369538	    -39.89774877	     66.39635596	      1.15883502	      3.20478571	     12.65320883	      0.00000000	      0.00000000	     53.17115772	     24.66468884	      5.09156368	    128.06187245	      2.23510132	      4.99644585	      0.79546025	      0.00000000	      0.00000000	    -89.94913463	     15.60236981	      1.02310026	    -59.38881094	   -119.86000741	    -72.58668588	     67.38033704	     21.08061320	      0.00000000	      0.00000000	     89.88148625	     16.09774119	     40.55064874	     31.48546217	     16.23001833	      0.00000000	      0.00000000
      2.50500000	     27.42964859	     21.29846442	     23.65973990	      0.06740573	      1.05098006	     -0.25970550	      0.00000000	      0.50000000	      0.00000000	      0.25000000	     -2.13788872	    -40.59297594	    -39.90162718	     65.68099475	      1.14634961	      2.28574773	     12.66866317	      0.00000000	      0.00000000	     54.39398094	     23.77763925	      4.96185087	    128.27498707	      2.23882087	      5.19262349	      1.17572102	      0.00000000	      0.00000000	    -89.95027611	     15.10339279	      1.91289793	    -59.65379522	   -119.85851788	    -72.91057800	     66.86280747	     21.60481027	      0.00000000	      0.00000000	     89.87981619	     16.33364080	     40.35732124	     31.38077613	     16.30069027	      0.00000000	      0.00000000
      2.51000000	     27.44629084	     20.92103565	     23.12827680	      0.06765302	      1.05165878	     -0.25828204	      0.00000000	      0.50000000	      0.00000000	      0.25000000	     -2.44527649	    -39.91833063	    -39.90463470	     65.20495755	      1.13804120	      1.43061907	     12.70850569	      0.00000000	      0.00000000	     55.61806897	     23.17392077	      4.63161387	    128.33173844	      2.23981137	      5.24789701	      1.30911223	      0.00000000	      0.00000000	    -89.95093771	     14.68289529	      2.45802523	    -59.42858851	   -119.85720668	    -72.74741200	     66.81272458	     21.69600669	      0.00000000	      0.00000000	     89.87759006	     16.28277250	     40.11260001	     31.60486318	     16.48155220	      0.00000000	      0.00000000
      2.51500000	     27.64993288	     20.08195461	     22.66281778	      0.06780427	      1.05242780	     -0.25673256	      0.00000000	      0.50000000	      0.00000000	      0.25000000	     -2.79180910	    -38.51825568	    -39.90633795	     64.60732375	      1.12761052	      0.48432625	     12.15136084	      0.00000000	      0.00000000	     56.61874637	     22.26436069	      4.94923080	    128.40672360	      2.24112011	      5.45349063	      1.76603305	      0.00000000	      0.00000000	    -89.95213310	     14.29351199	      3.63401224	    -59.67884199	   -119.85701881	    -72.69206414	     66.06427665	     21.41938337	      0.00000000	      0.00000000	     89.87581317	     16.72552325	     40.03588495	     31.31276105	     16.16019093	      0.00000000	      0.00000000
      2.52000000	     27.63931183	     19.84027437	     22.30197508	      0.06779586	      1.05299241	     -0.25548627	      0.00000000	      0.50000000	      0.00000000	      0.25000000	     -3.09750735	    -38.04766283	    -39.90804801	     64.42009762	      1.12434281	     -0.16045007	     12.10449506	      0.00000000	      0.00000000	     57.65458991	     21.95079766	      4.67291420	    128.22552890	      2.23795766	      5.40978142	      1.88145329	      0.00000000	      0.00000000	    -89.95264950	     13.97617761	      3.94553595	    -59.63982071	   -119.85562741	    -72.76432102	     66.09267187	     21.39079017	      0.00000000	      0.00000000	     89.87339384	     16.62935644	     39.87129455	     31.48021705	     16.16417190	      0.00000000	      0.00000000
